<?xml version="1.0" standalone="no"?>
<svg viewBox="0 0 200 200" xmlns="http://www.w3.org/2000/svg">
  <path fill="#1A40C9" d="M29.8,-37.7C40.2,-33.5,51.2,-26.9,55.6,-17.2C59.9,-7.5,57.5,5.2,54.3,18.4C51.1,31.7,47.1,45.5,37.9,56.2C28.7,67,14.4,74.7,-0.5,75.5C-15.4,76.2,-30.8,69.9,-41.1,59.5C-51.4,49.1,-56.6,34.6,-60.3,20.3C-64,6,-66.2,-8.1,-63.3,-21.6C-60.3,-35.1,-52.2,-47.9,-40.8,-51.8C-29.4,-55.7,-14.7,-50.6,-2.5,-47.2C9.7,-43.8,19.4,-41.9,29.8,-37.7Z" transform="translate(100 100)" />
</svg>
