<svg xmlns="http://www.w3.org/2000/svg" data-name="Layer 1" viewBox="0 0 1041.59024 589" xmlns:xlink="http://www.w3.org/1999/xlink">
<path d="M560.81664,394.22516H179.20488V155.5H560.81664Z" transform="translate(-179.20488 -155.5)" fill="#fff"/>
<path d="M560.81664,394.22516H179.20488V155.5H560.81664ZM180.9474,392.48264H559.07412V157.24252H180.9474Z" transform="translate(-179.20488 -155.5)" fill="#3f3d56"/>
<path d="M514.20424,724.86865H296.38931V486.14349H514.20424Z" transform="translate(-179.20488 -155.5)" fill="#fff"/>
<path d="M514.20424,724.86865H296.38931V486.14349H514.20424Zm-216.07241-1.74252H512.46172V487.886H298.13183Z" transform="translate(-179.20488 -155.5)" fill="#3f3d56"/>
<rect x="260.07105" y="546.82166" width="45.30551" height="1.8367" fill="#3f3d56"/>
<rect x="260.07105" y="552.33175" width="45.30551" height="1.8367" fill="#3f3d56"/>
<rect x="260.07105" y="557.84189" width="45.30551" height="1.8367" fill="#3f3d56"/>
<path d="M405.2968,528.835v19.16772a57.50315,57.50315,0,0,1,40.66088,98.164l13.55361,13.55361A76.67086,76.67086,0,0,0,405.2968,528.835Z" transform="translate(-179.20488 -155.5)" fill="#e6e6e6"/>
<path d="M459.51129,659.72034l-13.55361-13.55361a57.48875,57.48875,0,0,1-75.4511,5.11572l-11.60149,15.26513A76.66891,76.66891,0,0,0,459.51129,659.72034Z" transform="translate(-179.20488 -155.5)" fill="#575a89"/>
<path d="M347.79366,605.50585a57.50312,57.50312,0,0,1,57.50314-57.50314V528.835a76.6701,76.6701,0,0,0-46.39171,137.71259l11.60152-15.26513A57.403,57.403,0,0,1,347.79366,605.50585Z" transform="translate(-179.20488 -155.5)" fill="#ff7c5f"/>
<path d="M836.57034,576.7545H618.75541V338.02891H836.57034Z" transform="translate(-179.20488 -155.5)" fill="#fff"/>
<path d="M836.57034,576.7545H618.75541V338.02891H836.57034ZM620.49793,575.012H834.82782V339.77143H620.49793Z" transform="translate(-179.20488 -155.5)" fill="#3f3d56"/>
<rect x="470.9159" y="328.46512" width="39.20669" height="62.7307" fill="#575a89"/>
<rect x="527.54778" y="285.77339" width="39.20669" height="105.42243" fill="#e6e6e6"/>
<rect x="584.17967" y="236.11159" width="39.20669" height="155.08423" fill="#ff7c5f"/>
<polygon points="636.455 392.939 460.461 392.939 460.461 210.845 462.203 210.845 462.203 391.196 636.455 391.196 636.455 392.939" fill="#3f3d56"/>
<path d="M507.81987,344.2986H232.20165a.86259.86259,0,0,1-.86256-.86255V211.33223a.86256.86256,0,0,1,1.72512,0V342.57349H507.81987a.86256.86256,0,1,1,0,1.72511Z" transform="translate(-179.20488 -155.5)" fill="#3f3d56"/>
<path d="M291.08926,334.81045H266.02071a2.56337,2.56337,0,0,1-2.56052-2.5603V297.693a2.56337,2.56337,0,0,1,2.56052-2.5603h25.06855a2.56337,2.56337,0,0,1,2.56051,2.5603v34.55712A2.56337,2.56337,0,0,1,291.08926,334.81045Z" transform="translate(-179.20488 -155.5)" fill="#ff7c5f"/>
<path d="M336.8049,334.81045H311.73635a2.56336,2.56336,0,0,1-2.56051-2.5603V264.91577a2.56337,2.56337,0,0,1,2.56051-2.5603H336.8049a2.56337,2.56337,0,0,1,2.56051,2.5603v67.33438A2.56336,2.56336,0,0,1,336.8049,334.81045Z" transform="translate(-179.20488 -155.5)" fill="#ff7c5f"/>
<path d="M382.52054,334.81045H357.452a2.56337,2.56337,0,0,1-2.56051-2.5603V297.693a2.56337,2.56337,0,0,1,2.56051-2.5603h25.06855a2.56337,2.56337,0,0,1,2.56052,2.5603v34.55712A2.56337,2.56337,0,0,1,382.52054,334.81045Z" transform="translate(-179.20488 -155.5)" fill="#ff7c5f"/>
<path d="M428.23619,334.81045H403.16763a2.50734,2.50734,0,0,1-2.56051-2.44431V251.8614a2.50734,2.50734,0,0,1,2.56051-2.44432h25.06856a2.50734,2.50734,0,0,1,2.56051,2.44432v80.50474A2.50734,2.50734,0,0,1,428.23619,334.81045Z" transform="translate(-179.20488 -155.5)" fill="#ff7c5f"/>
<path d="M473.95183,334.81045H448.88328a2.56336,2.56336,0,0,1-2.56051-2.5603V228.68828a2.56337,2.56337,0,0,1,2.56051-2.5603h25.06855a2.56337,2.56337,0,0,1,2.56051,2.5603V332.25015A2.56337,2.56337,0,0,1,473.95183,334.81045Z" transform="translate(-179.20488 -155.5)" fill="#ff7c5f"/>
<circle cx="99.3501" cy="124.10666" r="5.17536" fill="#3f3d56"/>
<circle cx="145.06574" cy="90.46685" r="5.17536" fill="#3f3d56"/>
<circle cx="190.78139" cy="124.10666" r="5.17536" fill="#3f3d56"/>
<circle cx="236.49703" cy="74.07822" r="5.17536" fill="#3f3d56"/>
<circle cx="282.21267" cy="55.10191" r="5.17536" fill="#3f3d56"/>
<polygon points="190.89 125.266 145.066 90.943 99.867 124.797 98.833 123.416 145.066 88.787 190.672 122.947 235.993 73.352 236.175 73.278 281.89 54.858 282.535 56.459 237.001 74.805 190.89 125.266" fill="#3f3d56"/>
</svg>