<svg xmlns="http://www.w3.org/2000/svg" data-name="Layer 1"  viewBox="0 0 689.16222 554.20406" xmlns:xlink="http://www.w3.org/1999/xlink">
<polygon points="262.385 109.64 260.385 109.64 260.385 32.597 405.042 32.597 405.042 34.597 262.385 34.597 262.385 109.64" fill="#3f3d56"/>
<circle cx="427.22498" cy="27.78" r="27.78" fill="#ff7c5f"/>
<path d="M638.36592,196.52987a3.08927,3.08927,0,0,1-2.47187-1.23631l-7.57881-10.10525a3.09007,3.09007,0,1,1,4.94424-3.70792l4.95831,6.61058,12.7348-19.10194a3.0902,3.0902,0,1,1,5.1424,3.42827l-15.15762,22.73643a3.09148,3.09148,0,0,1-2.48544,1.37513C638.42326,196.52936,638.39459,196.52987,638.36592,196.52987Z" transform="translate(-214.9307 -154.29167)" fill="#fff"/>
<polygon points="164.385 296.685 162.385 296.685 162.385 373.728 307.042 373.728 307.042 371.728 164.385 371.728 164.385 296.685" fill="#3f3d56"/>
<circle cx="329.22498" cy="373.78" r="27.78" fill="#FF3C85"/>
<path d="M540.36592,542.52987a3.08927,3.08927,0,0,1-2.47187-1.23631l-7.57881-10.10525a3.09007,3.09007,0,1,1,4.94424-3.70792l4.95831,6.61058,12.7348-19.10194a3.0902,3.0902,0,1,1,5.1424,3.42827l-15.15762,22.73643a3.09148,3.09148,0,0,1-2.48544,1.37513C540.42326,542.52936,540.39459,542.52987,540.36592,542.52987Z" transform="translate(-214.9307 -154.29167)" fill="#fff"/>
<path d="M298.55912,308a58.77888,58.77888,0,0,1,16.04834-40.42676l-35.42334-48.75537a17.27493,17.27493,0,0,0-26.06348-2.19678,126.47218,126.47218,0,0,0-38.18994,90.95508,128.78525,128.78525,0,0,0,1.42725,19.11817,17.39208,17.39208,0,0,0,8.05713,12.231,17.20044,17.20044,0,0,0,14.38232,1.728l61.16553-19.874A59.15048,59.15048,0,0,1,298.55912,308Z" transform="translate(-214.9307 -154.29167)" fill="#f2f2f2"/>
<path d="M301.81205,327.31885l-63.58984,20.66162a17.25669,17.25669,0,0,0-10.1919,24.00635,127.485,127.485,0,0,0,94.86133,69.62353,17.29333,17.29333,0,0,0,13.89307-3.97265,17.25258,17.25258,0,0,0,6.022-13.1045V365.14062A59.11375,59.11375,0,0,1,301.81205,327.31885Z" transform="translate(-214.9307 -154.29167)" fill="#ffffff"/>
<path d="M493.04349,364.42773a19.26609,19.26609,0,0,0-11.80517-10.8457l-69.353-22.53418a59.04575,59.04575,0,0,1-47.06885,35.4917v72.25928a19.24418,19.24418,0,0,0,22.16944,19.01074,141.91776,141.91776,0,0,0,105.59863-77.50391A19.08863,19.08863,0,0,0,493.04349,364.42773Z" transform="translate(-214.9307 -154.29167)" fill="#FF3C85"/>
<path d="M475.813,198.68506a19.22962,19.22962,0,0,0-29.01368,2.44531l-47.415,65.26123A58.81036,58.81036,0,0,1,416.55912,308c0,1.437-.06934,2.85645-.17041,4.26758l75.36914,24.48926a19.26508,19.26508,0,0,0,24.979-15.53907,143.32936,143.32936,0,0,0,1.58887-21.2832A140.78836,140.78836,0,0,0,475.813,198.68506Z" transform="translate(-214.9307 -154.29167)" fill="#ff7c5f"/>
<path d="M357.55912,249a58.706,58.706,0,0,1,28.9668,7.60645l28.93994-39.83252a17.33718,17.33718,0,0,0,2.83545-14.249,16.99427,16.99427,0,0,0-8.791-11.2041,127.62618,127.62618,0,0,0-115.3789-.168,17.4365,17.4365,0,0,0-9.09375,11.47071,17.18636,17.18636,0,0,0,2.80957,14.15332l32.83007,45.187A58.7338,58.7338,0,0,1,357.55912,249Z" transform="translate(-214.9307 -154.29167)" fill="#e6e6e6"/>
</svg>